<svg width="32" height="33" viewBox="0 0 32 33" fill="none" xmlns="http://www.w3.org/2000/svg">
<g id="Social Icons">
<path id="BG" fill-rule="evenodd" clip-rule="evenodd" d="M0 16.4004C0 7.56384 7.16344 0.400391 16 0.400391C24.8366 0.400391 32 7.56384 32 16.4004C32 25.2369 24.8366 32.4004 16 32.4004C7.16344 32.4004 0 25.2369 0 16.4004Z" fill="#E5F4F2"/>
<path id="Path" fill-rule="evenodd" clip-rule="evenodd" d="M24.5333 16.3887C24.5333 16.9658 24.4746 17.5421 24.3592 18.1038C24.2467 18.6522 24.08 19.1906 23.8617 19.7053C23.6483 20.2109 23.3837 20.6981 23.0745 21.1525C22.77 21.604 22.4191 22.0275 22.0337 22.4137C21.6474 22.7981 21.2224 23.148 20.7711 23.4539C20.3152 23.7609 19.8273 24.0251 19.3215 24.2394C18.806 24.4566 18.2664 24.6231 17.7184 24.7354C17.1559 24.8511 16.5776 24.9102 15.9996 24.9102C15.4213 24.9102 14.8429 24.8511 14.2812 24.7354C13.7324 24.6231 13.1928 24.4566 12.6778 24.2394C12.1719 24.0251 11.6836 23.7609 11.2277 23.4539C10.7764 23.148 10.3514 22.7981 9.96599 22.4137C9.58015 22.0275 9.22928 21.604 8.92427 21.1525C8.61675 20.6981 8.35172 20.2109 8.13755 19.7053C7.91918 19.1906 7.75211 18.6522 7.63919 18.1038C7.52503 17.5421 7.46667 16.9658 7.46667 16.3887C7.46667 15.8112 7.52499 15.2336 7.63922 14.6731C7.75215 14.1247 7.91922 13.5855 8.13759 13.0716C8.35175 12.5657 8.61678 12.078 8.9243 11.6236C9.22931 11.1718 9.58018 10.749 9.96602 10.3625C10.3515 9.97798 10.7765 9.62891 11.2278 9.32351C11.6836 9.01517 12.172 8.75099 12.6778 8.53626C13.1929 8.31861 13.7324 8.15178 14.2812 8.04029C14.8429 7.92545 15.4213 7.86719 15.9997 7.86719C16.5776 7.86719 17.1559 7.92545 17.7185 8.04029C18.2664 8.15181 18.806 8.31864 19.3215 8.53626C19.8273 8.75095 20.3153 9.01517 20.7711 9.32351C21.2224 9.62891 21.6475 9.97798 22.0337 10.3625C22.4191 10.749 22.77 11.1718 23.0746 11.6236C23.3837 12.078 23.6483 12.5657 23.8617 13.0716C24.08 13.5855 24.2467 14.1247 24.3592 14.6731C24.4746 15.2336 24.5333 15.8112 24.5333 16.3887ZM12.8903 9.80657C10.8581 10.7648 9.34131 12.6347 8.86836 14.8883C9.06048 14.8899 12.0973 14.9282 15.5962 13.9999C14.3349 11.7622 12.9874 9.93601 12.8903 9.80657ZM16.2 15.1205C12.4477 16.2422 8.84711 16.1615 8.71795 16.1565C8.71585 16.2347 8.71211 16.3104 8.71211 16.3887C8.71211 18.2581 9.41839 19.9624 10.5793 21.2511C10.5768 21.2473 12.5711 17.7143 16.5038 16.4444C16.5988 16.4128 16.6955 16.3845 16.7913 16.3571C16.6084 15.9435 16.4087 15.5291 16.2 15.1205ZM20.8124 10.9271C19.5293 9.7974 17.8447 9.11215 15.9996 9.11215C15.4075 9.11215 14.8329 9.18372 14.2824 9.31603C14.3916 9.46251 15.7604 11.2758 17.0067 13.5609C19.7565 12.5315 20.7944 10.9537 20.8124 10.9271ZM17.288 17.5629C17.2718 17.5683 17.2556 17.5729 17.2397 17.5787C12.94 19.0755 11.5358 22.0919 11.5206 22.1249C12.7578 23.0856 14.3096 23.6652 15.9996 23.6652C17.0088 23.6652 17.9701 23.46 18.8448 23.0885C18.7368 22.4527 18.3135 20.2242 17.288 17.5629ZM20.0719 22.4236C21.7082 21.321 22.8703 19.5701 23.1945 17.542C23.0445 17.4938 21.0057 16.8492 18.6535 17.2258C19.6093 19.8489 19.9977 21.9851 20.0719 22.4236ZM17.5676 14.6453C17.7368 14.9923 17.9006 15.3455 18.0518 15.7005C18.1056 15.8278 18.1581 15.9526 18.2093 16.0774C20.7128 15.7629 23.1792 16.2921 23.2846 16.3137C23.2679 14.5887 22.65 13.0054 21.6275 11.7659C21.6137 11.7855 20.4449 13.4719 17.5676 14.6453Z" fill="#2D2D2D"/>
</g>
</svg>
