<svg width="32" height="33" viewBox="0 0 32 33" fill="none" xmlns="http://www.w3.org/2000/svg">
<g id="Social Icons">
<path id="BG" fill-rule="evenodd" clip-rule="evenodd" d="M0 16.4004C0 7.56384 7.16344 0.400391 16 0.400391C24.8366 0.400391 32 7.56384 32 16.4004C32 25.2369 24.8366 32.4004 16 32.4004C7.16344 32.4004 0 25.2369 0 16.4004Z" fill="#E5F4F2"/>
<path id="Path" fill-rule="evenodd" clip-rule="evenodd" d="M18.3722 12.8468H22.8917V11.5519H18.3722V12.8468ZM19.4429 15.6721C19.1549 15.9651 18.9733 16.3621 18.899 16.863H22.4141C22.377 16.3284 22.1944 15.9245 21.8712 15.6464C21.5441 15.3702 21.1417 15.2326 20.6601 15.2326C20.1383 15.2326 19.7309 15.3791 19.4429 15.6721ZM22.4933 13.9338C23.0382 14.1733 23.4868 14.5535 23.84 15.0722C24.1621 15.5296 24.3688 16.0602 24.4631 16.6631C24.5183 17.0155 24.5404 17.5263 24.5314 18.1905H18.8488C18.8829 18.9617 19.1518 19.5032 19.6656 19.8131C19.9767 20.0061 20.351 20.1031 20.7905 20.1031C21.2531 20.1031 21.6314 19.9853 21.9214 19.7507C22.0809 19.623 22.2214 19.4468 22.3418 19.2211H24.424C24.3688 19.6764 24.1159 20.1407 23.6684 20.6119C22.97 21.3594 21.9916 21.7336 20.7343 21.7336C19.6957 21.7336 18.7796 21.4188 17.9878 20.7872C17.1921 20.1566 16.7967 19.129 16.7967 17.7074C16.7967 16.374 17.155 15.3514 17.8704 14.6396C18.5879 13.9298 19.5161 13.5724 20.659 13.5724C21.3384 13.5724 21.9495 13.6932 22.4933 13.9338ZM9.56888 16.8907V19.6656H12.1297C12.5873 19.6656 12.9445 19.6042 13.1984 19.4824C13.661 19.2547 13.8918 18.8231 13.8918 18.1836C13.8918 17.6411 13.669 17.2699 13.2204 17.0669C12.9696 16.9541 12.6174 16.8947 12.1658 16.8907H9.56888ZM9.56888 12.8735V15.1692H12.1337C12.5903 15.1692 12.9626 15.0831 13.2495 14.9108C13.5345 14.7386 13.678 14.4337 13.678 13.9981C13.678 13.512 13.4894 13.1923 13.1121 13.0359C12.7849 12.928 12.3695 12.8735 11.8648 12.8735H9.56888ZM15.2966 12.1756C15.6187 12.6181 15.7803 13.1468 15.7803 13.7635C15.7803 14.3981 15.6187 14.9099 15.2926 15.2959C15.11 15.5118 14.842 15.7097 14.4878 15.8879C15.0257 16.082 15.4311 16.3879 15.707 16.8066C15.98 17.2244 16.1174 17.7332 16.1174 18.3311C16.1174 18.9479 15.9609 19.5012 15.6468 19.9903C15.4481 20.314 15.1993 20.5872 14.9002 20.809C14.5641 21.0634 14.1677 21.2366 13.7091 21.3316C13.2506 21.4257 12.7549 21.4712 12.219 21.4712H7.46667V11.0669H12.5632C13.8496 11.0857 14.7598 11.455 15.2966 12.1756Z" fill="#2D2D2D"/>
</g>
</svg>
