<svg width="42" height="43" viewBox="0 0 42 43" fill="none" xmlns="http://www.w3.org/2000/svg">
<g id="MagicWand">
<path id="Vector" opacity="0.2" d="M11.4351 36.1306C11.313 36.2547 11.1674 36.3531 11.0069 36.4204C10.8463 36.4876 10.674 36.5222 10.5 36.5222C10.3259 36.5222 10.1536 36.4876 9.99307 36.4204C9.83252 36.3531 9.68695 36.2547 9.56482 36.1306L6.18513 32.751C6.06112 32.6288 5.96264 32.4833 5.89542 32.3227C5.8282 32.1622 5.79358 31.9898 5.79358 31.8158C5.79358 31.6417 5.8282 31.4694 5.89542 31.3089C5.96264 31.1483 6.06112 31.0028 6.18513 30.8806L23.625 13.4408L28.875 18.6908L11.4351 36.1306Z" fill="#FF6250"/>
<path id="Vector_2" d="M35.4375 21.3158V29.1908" stroke="#FF6250" stroke-width="2.375" stroke-linecap="round" stroke-linejoin="round"/>
<path id="Vector_3" d="M31.5 25.2533H39.375" stroke="#FF6250" stroke-width="2.375" stroke-linecap="round" stroke-linejoin="round"/>
<path id="Vector_4" d="M13.7812 6.8783V13.4408" stroke="#FF6250" stroke-width="2.375" stroke-linecap="round" stroke-linejoin="round"/>
<path id="Vector_5" d="M10.5 10.1595H17.0625" stroke="#FF6250" stroke-width="2.375" stroke-linecap="round" stroke-linejoin="round"/>
<path id="Vector_6" d="M27.5625 30.5033V35.7533" stroke="#FF6250" stroke-width="2.375" stroke-linecap="round" stroke-linejoin="round"/>
<path id="Vector_7" d="M24.9375 33.1283H30.1875" stroke="#FF6250" stroke-width="2.375" stroke-linecap="round" stroke-linejoin="round"/>
<path id="Vector_8" d="M30.5857 6.48978L6.18882 30.8866C5.67626 31.3992 5.67626 32.2302 6.18882 32.7428L9.5821 36.1361C10.0947 36.6486 10.9257 36.6486 11.4383 36.1361L35.8351 11.7392C36.3477 11.2267 36.3477 10.3956 35.8351 9.88306L32.4418 6.48978C31.9293 5.97722 31.0982 5.97722 30.5857 6.48978Z" stroke="#FF6250" stroke-width="2.375" stroke-linecap="round" stroke-linejoin="round"/>
<path id="Vector_9" d="M23.625 13.4408L28.875 18.6908" stroke="#FF6250" stroke-width="2.375" stroke-linecap="round" stroke-linejoin="round"/>
</g>
</svg>
