<svg width="20" height="20" viewBox="0 0 20 20" fill="none" xmlns="http://www.w3.org/2000/svg">
<g id="RocketLaunch">
<path id="Vector" d="M7.35156 14.4219C6.46094 17.0703 2.92969 17.0703 2.92969 17.0703C2.92969 17.0703 2.92969 13.5391 5.57812 12.6484" stroke="#F8F9FF" stroke-width="1.66667" stroke-linecap="round" stroke-linejoin="round"/>
<path id="Vector_2" d="M15.3047 8.23437L10 13.5391L6.46094 10L11.7656 4.69531C13.7734 2.6875 15.7813 2.71094 16.6406 2.83594C16.7732 2.85363 16.8963 2.91447 16.9909 3.00907C17.0855 3.10367 17.1464 3.22677 17.1641 3.35937C17.2891 4.21875 17.3125 6.22656 15.3047 8.23437Z" stroke="#F8F9FF" stroke-width="1.66667" stroke-linecap="round" stroke-linejoin="round"/>
<path id="Vector_3" d="M14.4219 9.11719V14.1641C14.4195 14.3289 14.3521 14.4862 14.2344 14.6016L11.7109 17.1328C11.6309 17.2128 11.5306 17.2695 11.4208 17.297C11.3111 17.3244 11.1959 17.3215 11.0876 17.2886C10.9794 17.2558 10.882 17.1941 10.8061 17.1102C10.7301 17.0264 10.6783 16.9235 10.6562 16.8125L10 13.5391" stroke="#F8F9FF" stroke-width="1.66667" stroke-linecap="round" stroke-linejoin="round"/>
<path id="Vector_4" d="M10.8828 5.57812H5.83594C5.67108 5.58047 5.51383 5.64787 5.39844 5.76563L2.86719 8.28906C2.78723 8.36912 2.73049 8.46939 2.70305 8.57916C2.6756 8.68894 2.67848 8.8041 2.71136 8.91237C2.74424 9.02064 2.8059 9.11796 2.88976 9.19393C2.97361 9.2699 3.07652 9.32168 3.1875 9.34375L6.46094 10" stroke="#F8F9FF" stroke-width="1.66667" stroke-linecap="round" stroke-linejoin="round"/>
</g>
</svg>
