<svg width="32" height="33" viewBox="0 0 32 33" fill="none" xmlns="http://www.w3.org/2000/svg">
<g id="Social Icons">
<path id="BG" fill-rule="evenodd" clip-rule="evenodd" d="M0 16.4004C0 7.56384 7.16344 0.400391 16 0.400391C24.8366 0.400391 32 7.56384 32 16.4004C32 25.2369 24.8366 32.4004 16 32.4004C7.16344 32.4004 0 25.2369 0 16.4004Z" fill="#E5F4F2"/>
<path id="Path" fill-rule="evenodd" clip-rule="evenodd" d="M15.5208 13.4055L15.5544 13.9591L14.9948 13.8913C12.9579 13.6315 11.1784 12.7502 9.66756 11.27L8.92891 10.5356L8.73865 11.078C8.33575 12.2869 8.59316 13.5637 9.43253 14.4224C9.8802 14.8969 9.77948 14.9647 9.00725 14.6822C8.73865 14.5919 8.50363 14.5241 8.48124 14.558C8.4029 14.637 8.6715 15.6652 8.88414 16.072C9.17513 16.6369 9.76828 17.1906 10.4174 17.5182L10.9658 17.7781L10.3167 17.7894C9.68994 17.7894 9.66756 17.8007 9.73471 18.038C9.95854 18.7724 10.8427 19.552 11.8276 19.8909L12.5214 20.1282L11.9171 20.4898C11.0218 21.0095 9.96973 21.3033 8.91772 21.3259C8.41409 21.3372 8 21.3824 8 21.4163C8 21.5293 9.36538 22.162 10.16 22.4105C12.5438 23.145 15.3753 22.8286 17.5017 21.5744C19.0126 20.6818 20.5235 18.908 21.2286 17.1906C21.6091 16.2754 21.9896 14.6032 21.9896 13.8009C21.9896 13.2812 22.0232 13.2134 22.6499 12.592C23.0192 12.2304 23.3662 11.835 23.4333 11.722C23.5452 11.5073 23.534 11.5073 22.9633 11.6994C22.012 12.0383 21.8777 11.9932 22.3477 11.4847C22.6947 11.1232 23.1088 10.4678 23.1088 10.2757C23.1088 10.2419 22.9409 10.2983 22.7506 10.4C22.5492 10.513 22.1015 10.6825 21.7658 10.7842L21.1614 10.9763L20.613 10.6034C20.3108 10.4 19.8856 10.1741 19.6617 10.1063C19.0909 9.94809 18.218 9.97069 17.7032 10.1515C16.3042 10.6599 15.4201 11.9706 15.5208 13.4055Z" fill="#2D2D2D"/>
</g>
</svg>
